<?xml version="1.0" encoding="UTF-8"?>
<svg xmlns="http://www.w3.org/2000/svg" width="1280" height="720" viewBox="0 0 1280 720"
     font-family="Arial" lang="ru-RU" data-pptx-page-role="content">
  <defs>
    <linearGradient id="bg-grad" x1="0%" y1="0%" x2="100%" y2="100%">
      <stop offset="0%" style="stop-color:#D6EAF8;stop-opacity:1"/>
      <stop offset="100%" style="stop-color:#F5E6D3;stop-opacity:1"/>
    </linearGradient>
  </defs>
  <image id="p04-photo" x="0" y="0" width="1280" height="720" href="../images/p04_why.jpg" preserveAspectRatio="xMidYMid slice" data-pptx-role="background"/>
  <rect id="p04-bg" x="0" y="0" width="1280" height="720" fill="url(#bg-grad)" fill-opacity="0.9" data-pptx-role="background"/>
  <rect id="accent" x="0" y="0" width="1280" height="6" fill="#E74C3C" data-pptx-role="decoration"/>
  <g id="title" data-pptx-bounds="80 44 1120 92">
    <text x="80" y="106" font-size="48" font-weight="bold" fill="#1B4F72">Литературы много — счастливых меньше</text>
  </g>
  <g id="chart-dep" data-pptx-bounds="80 185 550 400">
    <rect x="80" y="185" width="550" height="400" rx="16" fill="#FFFFFF" fill-opacity="0.86"/>
    <text x="110" y="232" font-size="24" font-weight="bold" fill="#E74C3C">Депрессия, США</text>
    <line x1="150" y1="272" x2="150" y2="508" stroke="#95A5A6" stroke-width="2"/>
    <line x1="150" y1="508" x2="600" y2="508" stroke="#95A5A6" stroke-width="2"/>
    <polyline points="150,486 240,458 330,418 420,372 510,318 590,284" fill="none" stroke="#E74C3C" stroke-width="6"/>
    <circle cx="590" cy="284" r="9" fill="#E74C3C"/>
    <text x="132" y="292" font-size="22" fill="#5D6D7E">15%</text>
    <text x="132" y="512" font-size="22" fill="#5D6D7E">0%</text>
    <text x="160" y="540" font-size="22" fill="#5D6D7E">2013</text>
    <text x="540" y="540" font-size="22" fill="#5D6D7E">2023</text>
    <text x="110" y="572" font-size="22" fill="#5D6D7E">8,2% → 13,1% за 10 лет</text>
  </g>
  <g id="chart-hap" data-pptx-bounds="660 185 540 400">
    <rect x="660" y="185" width="540" height="400" rx="16" fill="#FFFFFF" fill-opacity="0.86"/>
    <text x="690" y="232" font-size="24" font-weight="bold" fill="#1B4F72">Индекс счастья</text>
    <line x1="730" y1="272" x2="730" y2="508" stroke="#95A5A6" stroke-width="2"/>
    <line x1="730" y1="508" x2="1170" y2="508" stroke="#95A5A6" stroke-width="2"/>
    <polyline points="730,388 808,380 886,390 964,382 1042,388 1120,384" fill="none" stroke="#1B4F72" stroke-width="6"/>
    <circle cx="1120" cy="384" r="9" fill="#1B4F72"/>
    <text x="710" y="292" font-size="22" fill="#5D6D7E">8</text>
    <text x="710" y="512" font-size="22" fill="#5D6D7E">0</text>
    <text x="740" y="540" font-size="22" fill="#5D6D7E">2005</text>
    <text x="1060" y="540" font-size="22" fill="#5D6D7E">2025</text>
    <text x="690" y="572" font-size="22" fill="#5D6D7E">плато с 2005 года</text>
  </g>
  <g id="quote" data-pptx-bounds="80 605 1120 70">
    <use data-icon="tabler-outline/quote" x="96" y="610" width="40" height="40" fill="#E67E22"/>
    <text x="152" y="642" font-size="24" font-style="italic" fill="#2C3E50">Парадокс: литературы больше, счастливых людей — нет</text>
  </g>
</svg>
