<?xml version="1.0" encoding="UTF-8"?><svg xmlns="http://www.w3.org/2000/svg" width="1280" height="720" viewBox="0 0 1280 720"     font-family="Arial" lang="ru-RU" data-pptx-page-role="content">  <defs>    <linearGradient id="bg-grad" x1="0%" y1="0%" x2="100%" y2="100%">      <stop offset="0%" style="stop-color:#D6EAF8;stop-opacity:1"/>      <stop offset="100%" style="stop-color:#F5E6D3;stop-opacity:1"/>    </linearGradient>  </defs>  <image id="p06-photo" x="0" y="0" width="1280" height="720" href="../images/p06_physiology.jpg" preserveAspectRatio="xMidYMid slice" data-pptx-role="background"/>  <rect id="p06-bg" x="0" y="0" width="1280" height="720" fill="url(#bg-grad)" fill-opacity="0.9" data-pptx-role="background"/>  <rect id="accent" x="0" y="0" width="1280" height="6" fill="#27AE60" data-pptx-role="decoration"/>  <g id="title" data-pptx-bounds="80 44 1120 92">    <text x="80" y="106" font-size="48" font-weight="bold" fill="#1B4F72">Как мозг создаёт ощущение счастья</text>
  </g>  <g id="video" data-pptx-bounds="470 210 340 250">
    <rect x="470" y="210" width="340" height="250" rx="16" fill="#FFFFFF" fill-opacity="0.9" stroke="#1B4F72" stroke-width="2"/>
    <image x="480" y="220" width="320" height="230" href="../images/brain_neurons.gif" preserveAspectRatio="xMidYMid slice"/>
  </g>
  <g id="video-note" data-pptx-bounds="440 466 400 62">
    <use data-icon="tabler-outline/activity" x="452" y="474" width="34" height="34" fill="#1B4F72"/>    <text x="494" y="500" font-size="22" font-weight="bold" fill="#1B4F72">Видео: нейросети мозга</text>
  </g>
  <g id="dopamine" data-pptx-bounds="80 180 340 120">    <rect x="80" y="180" width="340" height="120" rx="16" fill="#FFFFFF" fill-opacity="0.86"/>    <use data-icon="tabler-outline/activity" x="102" y="216" width="44" height="44" fill="#1B4F72"/>    <text x="162" y="248" font-size="26" font-weight="bold" fill="#1B4F72">Дофамин</text>    <text x="102" y="284" font-size="22" fill="#2C3E50">мотивация и предвкушение</text>  </g>  <g id="serotonin" data-pptx-bounds="860 180 340 120">    <rect x="860" y="180" width="340" height="120" rx="16" fill="#FFFFFF" fill-opacity="0.86"/>    <use data-icon="tabler-outline/mood-smile" x="882" y="216" width="44" height="44" fill="#1E8449"/>    <text x="942" y="248" font-size="26" font-weight="bold" fill="#1E8449">Серотонин</text>    <text x="882" y="284" font-size="22" fill="#2C3E50">настроение и сон</text>  </g>  <g id="endorphins" data-pptx-bounds="80 400 340 120">    <rect x="80" y="400" width="340" height="120" rx="16" fill="#FFFFFF" fill-opacity="0.86"/>    <use data-icon="tabler-outline/run" x="102" y="436" width="44" height="44" fill="#B9631B"/>    <text x="162" y="468" font-size="26" font-weight="bold" fill="#B9631B">Эндорфины</text>    <text x="102" y="504" font-size="22" fill="#2C3E50">эйфория и лёгкость</text>  </g>  <g id="oxytocin" data-pptx-bounds="860 400 340 120">    <rect x="860" y="400" width="340" height="120" rx="16" fill="#FFFFFF" fill-opacity="0.86"/>    <use data-icon="tabler-outline/heart" x="882" y="436" width="44" height="44" fill="#C0392B"/>    <text x="942" y="468" font-size="26" font-weight="bold" fill="#C0392B">Окситоцин</text>    <text x="882" y="504" font-size="22" fill="#2C3E50">доверие и близость</text>  </g>  <g id="note" data-pptx-bounds="80 540 1120 96">    <rect x="80" y="540" width="1120" height="96" rx="16" fill="#E74C3C" fill-opacity="0.1"/>    <use data-icon="tabler-outline/flask" x="108" y="564" width="40" height="40" fill="#C0392B"/>    <text x="164" y="588" font-size="22" fill="#2C3E50">Упрощённая модель. Дофамин — нейромедиатор предвкушения, а не «гормон<tspan x="164" dy="31">удовольствия» (Berridge, 1998: liking vs wanting)</tspan></text>  </g><line id="footer-rule" x1="80" y1="684" x2="1200" y2="684" stroke="#1F4E79" stroke-opacity="0.12" stroke-width="1" data-pptx-role="decoration"/><g id="slide-number" data-pptx-bounds="1100 690 100 28"><text x="1200" y="708" font-size="22" text-anchor="end" fill="#5D6D7E">6</text></g><g id="credits" data-pptx-bounds="80 690 980 28"><text x="80" y="708" font-size="22" fill="#7F8C8D">Katherine Stember (CC BY 4.0)</text></g></svg>