<?xml version="1.0" encoding="UTF-8"?>
<svg xmlns="http://www.w3.org/2000/svg" width="1280" height="720" viewBox="0 0 1280 720"
     font-family="Arial" data-pptx-page-role="content">
  <defs>
    <linearGradient id="bg-grad" x1="0%" y1="0%" x2="100%" y2="100%">
      <stop offset="0%" style="stop-color:#D6EAF8;stop-opacity:1"/>
      <stop offset="100%" style="stop-color:#F5E6D3;stop-opacity:1"/>
    </linearGradient>
  </defs>
  <image id="p09-photo" x="0" y="0" width="1280" height="720" href="../images/p09_formula.jpg" preserveAspectRatio="xMidYMid slice" data-pptx-role="background"/>
  <rect id="p09-bg" x="0" y="0" width="1280" height="720" fill="url(#bg-grad)" data-pptx-role="background" fill-opacity="0.88"/>
  <rect id="p09-accent" x="0" y="0" width="1280" height="6" fill="#27AE60" data-pptx-role="decoration"/>
      <text id="p09-foot" x="80" y="690" font-size="24" fill="#5D6D7E" data-pptx-role="footer">Концепция счастья · ИС-24</text>
      <text id="p09-num" x="1200" y="690" font-size="24" fill="#5D6D7E" text-anchor="end" data-pptx-role="page-number">09</text>

  <g id="p09-title" data-pptx-bounds="80 44 1120 92">
    <text x="80" y="106" font-size="48" font-weight="bold" fill="#1B4F72">Счастье = 50% + 40% + 10%</text>
  </g>

  <g id="p09-pie" data-pptx-bounds="120 190 420 420">
    <path d="M 332.0 240.0 A 150 150 0 0 1 332.0 540.0 L 331.2 482.0 A 92 92 0 0 0 331.2 298.0 Z" fill="#1B4F72"/>
    <path d="M 328.0 540.0 A 150 150 0 0 1 240.3 269.8 L 275.0 316.3 A 92 92 0 0 0 328.8 482.0 Z" fill="#27AE60"/>
    <path d="M 243.4 267.5 A 150 150 0 0 1 328.0 240.0 L 328.8 298.0 A 92 92 0 0 0 276.9 314.9 Z" fill="#95A5A6"/>
    <text x="330" y="382" font-size="24" font-weight="bold" fill="#1B4F72" text-anchor="middle">С = Н + В + О</text>
    <text x="330" y="416" font-size="24" fill="#5D6D7E" text-anchor="middle">формула счастья</text>
  </g>

  <g id="p09-legend" data-pptx-bounds="600 190 600 420">
    <rect x="600" y="200" width="600" height="110" rx="14" fill="#FFFFFF" fill-opacity="0.85"/>
    <rect x="628" y="232" width="26" height="26" fill="#1B4F72"/>
    <text x="672" y="254" font-size="24" font-weight="bold" fill="#1B4F72">50% — генетика</text>
    <text x="672" y="286" font-size="24" fill="#2C3E50">наследственная предрасположенность</text>

    <rect x="600" y="330" width="600" height="110" rx="14" fill="#FFFFFF" fill-opacity="0.85"/>
    <rect x="628" y="362" width="26" height="26" fill="#27AE60"/>
    <text x="672" y="384" font-size="24" font-weight="bold" fill="#1E8449">40% — волевой контроль</text>
    <text x="672" y="416" font-size="24" fill="#2C3E50">намеренные действия</text>

    <rect x="600" y="460" width="600" height="110" rx="14" fill="#FFFFFF" fill-opacity="0.85"/>
    <rect x="628" y="492" width="26" height="26" fill="#95A5A6"/>
    <text x="672" y="514" font-size="24" font-weight="bold" fill="#5D6D7E">10% — обстоятельства</text>
    <text x="672" y="546" font-size="24" fill="#2C3E50">внешние условия жизни</text>
  </g>

  <g id="p09-note" data-pptx-bounds="120 620 1040 60">
    
    <text x="120" y="660" font-size="24" fill="#5D6D7E">Мета-анализы (Rohrer &amp; Schmukle, 2018) оспаривают разделение 50/10/40</text>
  </g>
</svg>
