<?xml version='1.0' encoding='utf-8'?>
<svg xmlns="http://www.w3.org/2000/svg" width="1280" height="720" viewBox="0 0 1280 720" font-family="Arial" lang="ru-RU" data-pptx-page-role="content">  <defs>    <linearGradient id="bg-grad" x1="0%" y1="0%" x2="100%" y2="100%">      <stop offset="0%" style="stop-color:#D6EAF8;stop-opacity:1" />      <stop offset="100%" style="stop-color:#F5E6D3;stop-opacity:1" />    </linearGradient>  </defs>  <image id="p09-photo" x="0" y="0" width="1280" height="720" href="../images/p09_formula.jpg" preserveAspectRatio="xMidYMid slice" data-pptx-role="background" />  <rect id="p09-bg" x="0" y="0" width="1280" height="720" fill="url(#bg-grad)" fill-opacity="0.9" data-pptx-role="background" />  <rect id="accent" x="0" y="0" width="1280" height="6" fill="#27AE60" data-pptx-role="decoration" />  <g id="title" data-pptx-bounds="80 44 1120 92">    <text x="80" y="106" font-size="40" font-weight="bold" fill="#1B4F72">50% генетика · 40% действия · 10% обстоятельства</text>
  </g>  <g id="donut-seg1" data-pptx-bounds="180 222 150 300" data-pptx-role="decoration"><path d="M 330.0 222.0 A 150 150 0 0 1 330.0 522.0 L 330.0 468.0 A 96 96 0 0 0 330.0 276.0 Z" fill="#1B4F72" />    </g><g id="donut-seg2" data-pptx-bounds="241 250 89 272" data-pptx-role="decoration"><path d="M 330.0 522.0 A 150 150 0 0 1 241.8 250.6 L 273.6 294.3 A 96 96 0 0 0 330.0 468.0 Z" fill="#27AE60" />    </g><g id="donut-seg3" data-pptx-bounds="241 222 89 73" data-pptx-role="decoration"><path d="M 241.8 250.6 A 150 150 0 0 1 330.0 222.0 L 330.0 276.0 A 96 96 0 0 0 273.6 294.3 Z" fill="#95A5A6" />    </g><g id="donut-center" data-pptx-bounds="205 338 250 78" data-pptx-role="decoration"><text x="330" y="368" font-size="28" font-weight="bold" fill="#1B4F72" text-anchor="middle">С = Н + В + О</text>    <text x="330" y="402" font-size="22" fill="#5D6D7E" text-anchor="middle">формула счастья</text>  </g><g id="legend" data-pptx-bounds="600 190 600 404">    <rect x="600" y="200" width="600" height="110" rx="16" fill="#FFFFFF" fill-opacity="0.86" />    <rect x="628" y="242" width="26" height="26" fill="#1B4F72" />    <text x="672" y="244" font-size="24" font-weight="bold" fill="#1B4F72">50% — генетика</text>    <text x="672" y="280" font-size="22" fill="#2C3E50">наследственная предрасположенность</text>    <rect x="600" y="330" width="600" height="110" rx="16" fill="#FFFFFF" fill-opacity="0.86" />    <rect x="628" y="372" width="26" height="26" fill="#27AE60" />    <text x="672" y="374" font-size="24" font-weight="bold" fill="#27AE60">40% — действия</text>    <text x="672" y="410" font-size="22" fill="#2C3E50">намеренные усилия</text>    <rect x="600" y="460" width="600" height="110" rx="16" fill="#FFFFFF" fill-opacity="0.86" />    <rect x="628" y="502" width="26" height="26" fill="#95A5A6" />    <text x="672" y="504" font-size="24" font-weight="bold" fill="#95A5A6">10% — обстоятельства</text>    <text x="672" y="540" font-size="22" fill="#2C3E50">внешние условия жизни</text>  </g>  <g id="note" data-pptx-bounds="80 596 1120 84">    <use data-icon="tabler-outline/flask" x="96" y="618" width="36" height="36" fill="#1E8449" />    <text x="148" y="642" font-size="22" fill="#2C3E50">Формула предложена в 2000-х. Мета-анализы (Rohrer &amp; Schmukle, 2018) уточняют: гены и<tspan x="148" dy="31">среда взаимодействуют, а не суммируются</tspan></text>  </g><line id="footer-rule" x1="80" y1="684" x2="1200" y2="684" stroke="#1F4E79" stroke-opacity="0.12" stroke-width="1" data-pptx-role="decoration" /><g id="slide-number" data-pptx-bounds="1100 690 100 28"><text x="1200" y="708" font-size="22" text-anchor="end" fill="#5D6D7E">9</text></g></svg>