<?xml version='1.0' encoding='utf-8'?>
<svg xmlns="http://www.w3.org/2000/svg" width="1280" height="720" viewBox="0 0 1280 720" font-family="Arial" lang="ru-RU" data-pptx-page-role="content">  <defs>    <linearGradient id="bg-grad" x1="0%" y1="0%" x2="100%" y2="100%">      <stop offset="0%" style="stop-color:#EAF2F8;stop-opacity:1" />      <stop offset="100%" style="stop-color:#EFE1C9;stop-opacity:1" />    </linearGradient>  </defs>  <image id="p14-photo" x="0" y="0" width="1280" height="720" href="../images/p14_recommendations.jpg" preserveAspectRatio="xMidYMid slice" data-pptx-role="background" />  <rect id="p14-bg" x="0" y="0" width="1280" height="720" fill="url(#bg-grad)" fill-opacity="0.9" data-pptx-role="background" />  <rect id="accent" x="0" y="0" width="1280" height="6" fill="#1E8449" data-pptx-role="decoration" />  <g id="title" data-pptx-bounds="80 44 1120 92">    <text x="80" y="106" font-size="44" font-weight="bold" fill="#154360">Что делать конкретно</text>
  </g>  <g id="rec-1" data-pptx-bounds="80 180 360 215"><rect x="80" y="180" width="360" height="215" rx="16" fill="#FFFFFF" fill-opacity="0.86" />    <use data-icon="tabler-outline/heart" x="108" y="212" width="52" height="52" fill="#1E8449" />    <text x="108" y="308" font-size="24" font-weight="bold" fill="#1A1A1A">Будьте с близкими</text>    <text x="108" y="366" font-size="22" fill="#2C2C2C">время с семьёй и друзьями</text>    </g><g id="rec-2" data-pptx-bounds="460 180 360 215"><rect x="460" y="180" width="360" height="215" rx="16" fill="#FFFFFF" fill-opacity="0.86" />    <use data-icon="tabler-outline/notebook" x="488" y="212" width="52" height="52" fill="#1E8449" />    <text x="488" y="308" font-size="24" font-weight="bold" fill="#1A1A1A">Благодарность</text>    <text x="488" y="366" font-size="22" fill="#2C2C2C">3 добрых факта в день</text>    </g><g id="rec-3" data-pptx-bounds="840 180 360 215"><rect x="840" y="180" width="360" height="215" rx="16" fill="#FFFFFF" fill-opacity="0.86" />    <use data-icon="tabler-outline/run" x="868" y="212" width="52" height="52" fill="#1E8449" />    <text x="868" y="308" font-size="24" font-weight="bold" fill="#1A1A1A">Двигайтесь</text>    <text x="868" y="366" font-size="22" fill="#2C2C2C">спорт каждый день</text>    </g><g id="rec-4" data-pptx-bounds="80 415 1120 215"><rect x="460" y="415" width="360" height="215" rx="16" fill="#FFFFFF" fill-opacity="0.86" />    <use data-icon="tabler-outline/target" x="488" y="447" width="52" height="52" fill="#1E8449" />    <text x="488" y="543" font-size="24" font-weight="bold" fill="#1A1A1A">Ставьте цели</text>    <text x="488" y="601" font-size="22" fill="#2C2C2C">смысл вместо погони</text><rect x="840" y="415" width="360" height="215" rx="16" fill="#FFFFFF" fill-opacity="0.86" />    <use data-icon="tabler-outline/device-mobile" x="868" y="447" width="52" height="52" fill="#1E8449" />    <text x="868" y="543" font-size="24" font-weight="bold" fill="#1A1A1A">Детокс соцсетей</text>    <text x="868" y="601" font-size="22" fill="#2C2C2C">ограничьте экранное время</text><rect x="80" y="415" width="360" height="215" rx="16" fill="#FFFFFF" fill-opacity="0.86" />    <use data-icon="tabler-outline/mood-smile" x="108" y="447" width="52" height="52" fill="#1E8449" />    <text x="108" y="543" font-size="24" font-weight="bold" fill="#1A1A1A">Медитируйте</text>    <text x="108" y="601" font-size="22" fill="#2C2C2C">10 минут осознанности</text>    </g><line id="footer-rule" x1="80" y1="684" x2="1200" y2="684" stroke="#10304A" stroke-opacity="0.12" stroke-width="1" data-pptx-role="decoration" /><g id="slide-number" data-pptx-bounds="1100 690 100 28"><text x="1200" y="708" font-size="22" text-anchor="end" fill="#2C2C2C">16</text></g></svg>